<?xml version="1.0" standalone="no"?>
<!DOCTYPE svg PUBLIC "-//W3C//DTD SVG 20010904//EN"
 "http://www.w3.org/TR/2001/REC-SVG-20010904/DTD/svg10.dtd">
<svg version="1.0" xmlns="http://www.w3.org/2000/svg"
 width="260.000000pt" height="260.000000pt" viewBox="0 0 260.000000 260.000000"
 preserveAspectRatio="xMidYMid meet">
<metadata>
Created by potrace 1.11, written by Peter Selinger 2001-2013
</metadata>
<g transform="translate(0.000000,260.000000) scale(0.100000,-0.100000)"
fill="#000000" stroke="none">
<path d="M0 1300 l0 -1300 1300 0 1300 0 0 1300 0 1300 -1300 0 -1300 0 0
-1300z m1460 1109 c150 -27 280 -99 405 -224 122 -121 191 -244 229 -403 14
-59 15 -130 8 -577 l-8 -510 -31 -61 c-94 -181 -310 -353 -526 -417 -61 -19
-97 -22 -242 -22 -177 0 -214 7 -340 60 -66 28 -196 118 -254 176 -127 127
-181 217 -181 305 0 52 3 59 35 90 94 88 211 60 271 -63 55 -114 195 -223 330
-257 34 -9 102 -16 150 -16 192 0 346 81 449 236 33 49 37 63 42 144 4 59 2
90 -4 90 -6 0 -38 -19 -72 -41 -122 -81 -270 -115 -466 -106 -180 8 -297 53
-450 172 -97 75 -138 120 -188 203 -180 295 -166 637 38 908 188 251 493 369
805 313z"/>
<path d="M1144 2091 c-80 -27 -137 -66 -201 -136 -76 -82 -119 -169 -133 -265
-31 -217 69 -409 267 -513 146 -77 352 -70 486 15 69 44 153 142 195 227 36
72 36 75 36 195 0 115 -2 125 -33 199 -54 127 -192 248 -323 283 -74 19 -230
17 -294 -5z"/>
</g>
</svg>
