<svg width="518" height="296" viewBox="0 0 518 296" fill="none" xmlns="http://www.w3.org/2000/svg">
<path d="M632.416 61.5664C633.831 65.0884 633.518 69.4549 631.174 74.7595C628.829 80.0682 624.535 86.1087 618.359 92.765C606.015 106.069 586.477 121.492 561.155 138.048C510.54 171.14 437.173 208.529 353.058 242.337C268.942 276.144 190.107 299.929 130.669 311.069C100.933 316.643 76.1563 319.031 58.0387 317.97C48.9742 317.439 41.6944 316.05 36.3276 313.841C30.9648 311.634 27.7164 308.699 26.3008 305.177C24.8852 301.655 25.1991 297.289 27.5427 291.984C29.888 286.675 34.1819 280.635 40.3577 273.979C52.7015 260.674 72.2397 245.252 97.5613 228.696C148.176 195.604 221.543 158.215 305.659 124.407C389.775 90.5992 468.61 66.8145 528.048 55.6742C557.783 50.1009 582.56 47.7125 600.678 48.7737C609.742 49.3046 617.022 50.6934 622.389 52.9023C627.752 55.1097 631 58.0443 632.416 61.5664Z" stroke="url(#paint0_linear)" stroke-width="4"/>
<path d="M646.757 97.2477C648.173 100.77 647.859 105.136 645.515 110.441C643.17 115.749 638.876 121.79 632.7 128.446C620.356 141.751 600.818 157.173 575.496 173.729C524.881 206.821 451.514 244.21 367.399 278.018C283.283 311.826 204.448 335.61 145.01 346.751C115.274 352.324 90.4974 354.712 72.3798 353.651C63.3153 353.12 56.0355 351.732 50.6687 349.523C45.3059 347.315 42.0575 344.381 40.6419 340.859C39.2263 337.337 39.5402 332.97 41.8838 327.665C44.2291 322.357 48.523 316.316 54.6988 309.66C67.0426 296.356 86.5807 280.933 111.902 264.377C162.517 231.285 235.885 193.896 320 160.088C404.116 126.28 482.951 102.496 542.389 91.3555C572.124 85.7822 596.901 83.3938 615.019 84.455C624.083 84.9859 631.363 86.3747 636.73 88.5836C642.093 90.791 645.341 93.7256 646.757 97.2477Z" stroke="url(#paint1_linear)" stroke-width="4"/>
<path d="M663.706 139.417C665.121 142.939 664.807 147.305 662.464 152.61C660.118 157.918 655.825 163.959 649.649 170.615C637.305 183.919 617.767 199.342 592.445 215.898C541.83 248.99 468.463 286.379 384.347 320.187C300.232 353.995 221.397 377.779 161.959 388.92C132.223 394.493 107.446 396.881 89.3285 395.82C80.264 395.289 72.9842 393.9 67.6174 391.691C62.2546 389.484 59.0062 386.549 57.5906 383.027C56.175 379.505 56.4889 375.139 58.8325 369.834C61.1778 364.526 65.4717 358.485 71.6475 351.829C83.9913 338.525 103.529 323.102 128.851 306.546C179.466 273.454 252.833 236.065 336.949 202.257C421.065 168.449 499.899 144.665 559.338 133.524C589.073 127.951 613.85 125.563 631.968 126.624C641.032 127.155 648.312 128.544 653.679 130.753C659.042 132.96 662.29 135.894 663.706 139.417Z" stroke="url(#paint2_linear)" stroke-width="4"/>
<defs>
<linearGradient id="paint0_linear" x1="304.913" y1="122.551" x2="353.803" y2="244.192" gradientUnits="userSpaceOnUse">
<stop stop-color="#0C9BAB" stop-opacity="0"/>
<stop offset="1" stop-color="#0C9BAB"/>
</linearGradient>
<linearGradient id="paint1_linear" x1="319.254" y1="158.233" x2="368.144" y2="279.874" gradientUnits="userSpaceOnUse">
<stop stop-color="#0C9BAB" stop-opacity="0"/>
<stop offset="1" stop-color="#0C9BAB"/>
</linearGradient>
<linearGradient id="paint2_linear" x1="336.203" y1="200.402" x2="385.093" y2="322.042" gradientUnits="userSpaceOnUse">
<stop stop-color="#0C9BAB" stop-opacity="0"/>
<stop offset="1" stop-color="#0C9BAB"/>
</linearGradient>
</defs>
</svg>
